<svg xmlns="http://www.w3.org/2000/svg" xmlns:xlink="http://www.w3.org/1999/xlink" width="800" zoomAndPan="magnify" viewBox="0 0 600 599.999999" height="800" preserveAspectRatio="xMidYMid meet" version="1.0"><path fill="#e0850d" d="M 124.511719 482.539062 C 124.105469 481.902344 123.496094 480.316406 122.675781 477.785156 C 121.867188 475.253906 121.1875 473.570312 120.660156 472.734375 L 120.503906 472.496094 C 119.40625 470.789062 118.324219 470.273438 117.253906 470.96875 C 116.695312 471.328125 116.363281 471.859375 116.265625 472.566406 C 116.152344 473.277344 116.167969 474.542969 116.292969 476.335938 C 116.402344 478.144531 116.460938 479.6875 116.460938 480.984375 C 116.445312 482.277344 116.363281 483.625 116.195312 485.03125 C 115.917969 487.0625 115.167969 488.9375 113.929688 490.691406 C 112.691406 492.429688 111.21875 493.863281 109.519531 494.949219 C 108.324219 495.710938 106.90625 496.3125 105.238281 496.726562 C 103.570312 497.144531 101.664062 497.199219 99.496094 496.882812 C 97.328125 496.5625 95.3125 495.726562 93.433594 494.378906 C 91.558594 493.027344 90.070312 491.484375 88.941406 489.730469 C 86.898438 486.546875 85.925781 483.390625 85.996094 480.21875 C 86.066406 477.058594 87.300781 474.710938 89.679688 473.179688 C 90.792969 472.46875 91.917969 472.246094 93.074219 472.511719 C 94.226562 472.777344 95.214844 473.511719 96.046875 474.722656 L 96.242188 475.015625 L 99.496094 481.011719 L 99.691406 481.300781 C 100.109375 481.871094 100.59375 482.304688 101.125 482.609375 C 101.652344 482.917969 102.136719 482.929688 102.570312 482.652344 C 102.765625 482.527344 102.957031 482.25 103.140625 481.832031 C 103.320312 481.414062 103.417969 481.050781 103.460938 480.746094 C 103.625 479.855469 103.695312 478.3125 103.710938 476.085938 C 103.710938 473.859375 103.738281 472.148438 103.777344 470.953125 C 103.820312 469.742188 103.945312 468.476562 104.152344 467.144531 C 104.363281 465.808594 104.640625 464.640625 104.988281 463.664062 C 105.335938 462.679688 105.824219 461.730469 106.433594 460.800781 C 107.046875 459.867188 107.894531 459.0625 108.964844 458.378906 C 111.664062 456.640625 114.316406 455.738281 116.917969 455.640625 C 119.519531 455.542969 122.0625 456.222656 124.566406 457.671875 C 127.070312 459.117188 129.417969 461.441406 131.628906 464.625 L 132.199219 465.515625 C 133.269531 467.183594 134.203125 469.007812 134.980469 470.96875 C 135.757812 472.929688 136.203125 474.640625 136.289062 476.101562 C 136.382812 477.5625 136.289062 478.671875 136.007812 479.480469 C 135.785156 480.191406 135.382812 480.886719 134.800781 481.59375 C 134.214844 482.304688 133.605469 482.859375 132.976562 483.265625 C 131.992188 483.902344 130.933594 484.320312 129.835938 484.53125 C 128.738281 484.738281 127.695312 484.640625 126.722656 484.25 C 125.746094 483.902344 125.011719 483.347656 124.511719 482.539062 Z M 124.511719 482.539062 " fill-opacity="1" fill-rule="evenodd"/><path fill="#dc240e" d="M 81.796875 465.085938 C 80.835938 465.460938 79.78125 465.695312 78.640625 465.765625 C 77.5 465.835938 76.457031 465.570312 75.511719 464.988281 C 74.566406 464.390625 73.882812 463.554688 73.453125 462.457031 L 70.15625 454.097656 L 65.027344 440.671875 C 63.664062 437.210938 63.316406 434.457031 63.984375 432.4375 C 64.664062 430.421875 66.265625 428.90625 68.824219 427.90625 C 69.78125 427.527344 70.726562 427.429688 71.644531 427.625 C 72.5625 427.820312 73.425781 428.292969 74.261719 429.03125 C 75.082031 429.769531 75.832031 430.644531 76.511719 431.644531 C 77.195312 432.648438 77.902344 433.816406 78.652344 435.136719 C 79.40625 436.457031 79.917969 437.347656 80.195312 437.792969 L 81.113281 437.433594 C 83.839844 436.359375 88.386719 434.414062 94.78125 431.589844 C 99.007812 429.710938 102.222656 428.347656 104.417969 427.488281 L 107.671875 426.277344 C 109.0625 426.597656 110.355469 427.265625 111.550781 428.292969 C 112.746094 429.324219 113.652344 430.628906 114.277344 432.203125 C 114.75 433.382812 114.972656 434.652344 114.972656 436 C 114.972656 437.347656 114.652344 438.449219 114.027344 439.296875 C 112.066406 440.367188 109.007812 441.730469 104.835938 443.386719 C 102.109375 444.457031 99.386719 445.457031 96.660156 446.375 L 85.523438 450.160156 C 85.5625 450.242188 85.773438 450.925781 86.175781 452.191406 C 86.578125 453.457031 86.871094 454.386719 87.050781 455 C 87.246094 455.613281 87.34375 456.015625 87.371094 456.210938 C 87.816406 457.863281 87.886719 459.257812 87.582031 460.398438 C 87.523438 461.023438 86.996094 461.789062 86.007812 462.691406 C 84.992188 463.566406 83.605469 464.375 81.796875 465.085938 Z M 81.796875 465.085938 " fill-opacity="1" fill-rule="evenodd"/><path fill="#0052a1" d="M 73.855469 403.203125 L 73.273438 399.933594 C 72.800781 396.996094 72.605469 395.035156 72.6875 394.035156 C 72.773438 393.035156 73.023438 392.269531 73.425781 391.738281 C 73.828125 391.210938 74.441406 390.878906 75.21875 390.738281 C 76.375 390.53125 77.417969 390.570312 78.332031 390.863281 C 79.25 391.15625 80.015625 391.613281 80.628906 392.253906 C 81.238281 392.894531 81.796875 393.714844 82.296875 394.730469 C 82.785156 395.746094 83.257812 397.066406 83.6875 398.695312 C 84.117188 400.320312 84.382812 401.269531 84.480469 401.53125 L 85.382812 401.367188 C 86.59375 401.144531 87.621094 400.683594 88.46875 399.945312 C 89.316406 399.222656 89.75 398.179688 89.75 396.84375 C 89.761719 396.121094 89.609375 394.855469 89.289062 393.046875 C 89.136719 392.171875 88.789062 390.851562 88.261719 389.097656 C 87.734375 387.34375 87.398438 386.078125 87.261719 385.285156 C 87.039062 384.035156 87.300781 382.933594 88.066406 381.976562 C 88.832031 381.03125 89.792969 380.445312 90.960938 380.238281 C 93.042969 379.859375 94.867188 380.265625 96.421875 381.445312 C 97.980469 382.628906 99.230469 384.296875 100.191406 386.453125 C 101.152344 388.609375 101.859375 390.933594 102.304688 393.449219 C 102.597656 395.121094 102.792969 396.984375 102.875 399.027344 C 102.957031 401.074219 102.75 403.007812 102.25 404.816406 C 101.761719 406.621094 101.039062 408.070312 100.082031 409.15625 C 99.355469 409.960938 98.21875 410.808594 96.660156 411.714844 C 95.101562 412.617188 93.042969 413.480469 90.5 414.289062 C 87.957031 415.09375 85.339844 415.746094 82.65625 416.234375 C 79.222656 416.847656 75.902344 417.109375 72.703125 417.042969 C 69.503906 416.972656 66.75 416.597656 64.457031 415.929688 C 62.164062 415.261719 60.355469 414.246094 59.0625 412.894531 C 57.9375 411.660156 56.808594 409.808594 55.699219 407.347656 C 54.585938 404.882812 53.792969 402.285156 53.292969 399.542969 C 52.902344 397.359375 52.804688 395.355469 53.015625 393.546875 C 53.222656 391.738281 53.75 390.265625 54.597656 389.125 C 55.449219 387.984375 56.683594 387.273438 58.3125 386.984375 C 59.242188 386.816406 59.828125 386.761719 60.078125 386.816406 C 60.425781 386.84375 60.828125 386.996094 61.300781 387.246094 C 61.773438 387.496094 62.234375 387.957031 62.664062 388.625 C 63.09375 389.292969 63.457031 390.027344 63.75 390.835938 C 64.039062 391.644531 64.609375 393.992188 65.472656 397.859375 C 66.335938 401.742188 67.710938 403.742188 69.601562 403.882812 C 70.1875 403.925781 70.964844 403.855469 71.9375 403.6875 Z M 73.855469 403.203125 " fill-opacity="1" fill-rule="evenodd"/><path fill="#000000" d="M 91.292969 340.859375 L 78.472656 341.179688 C 78.472656 341.277344 78.554688 341.457031 78.738281 341.722656 C 78.917969 341.984375 80.226562 342.722656 82.644531 343.945312 C 85.0625 345.171875 86.789062 346.171875 87.800781 346.980469 C 88.816406 347.785156 89.527344 348.550781 89.945312 349.261719 C 90.347656 349.984375 90.542969 350.636719 90.527344 351.261719 L 90.515625 351.542969 C 90.484375 352.488281 90.207031 353.363281 89.664062 354.171875 C 89.125 354.976562 88.316406 355.769531 87.234375 356.519531 C 86.148438 357.273438 84.589844 358.121094 82.53125 359.054688 C 80.476562 360 79.210938 360.625 78.738281 360.945312 C 79.113281 361.140625 79.710938 361.335938 80.53125 361.515625 C 81.351562 361.695312 83.199219 361.835938 86.078125 361.902344 C 89.664062 362 92.113281 362.222656 93.421875 362.585938 C 94.589844 362.949219 95.476562 363.433594 96.074219 364.074219 C 97.273438 365.324219 97.839844 367.257812 97.773438 369.847656 C 97.730469 371.640625 97.214844 372.949219 96.257812 373.769531 C 95.296875 374.589844 93.683594 374.980469 91.417969 374.921875 L 90.988281 374.910156 C 80.574219 374.269531 73.828125 373.769531 70.742188 373.40625 C 67.65625 373.046875 64.929688 372.628906 62.566406 372.140625 C 60.1875 371.65625 58.171875 371.140625 56.476562 370.570312 C 54.972656 370.109375 53.679688 369.5 52.597656 368.734375 C 51.511719 367.96875 50.746094 367.132812 50.332031 366.230469 C 49.898438 365.324219 49.703125 364.492188 49.71875 363.742188 C 49.761719 362.28125 50.332031 360.832031 51.457031 359.402344 C 51.804688 358.941406 52.429688 358.414062 53.332031 357.816406 C 54.25 357.230469 55.433594 356.648438 56.878906 356.105469 C 58.339844 355.546875 60.96875 354.671875 64.761719 353.476562 C 68.574219 352.277344 70.476562 351.25 70.503906 350.402344 C 70.519531 350.027344 70.242188 349.621094 69.683594 349.175781 C 69.128906 348.730469 67.503906 347.996094 64.820312 346.921875 C 62.136719 345.867188 60.246094 345.058594 59.144531 344.515625 C 58.046875 343.976562 57.074219 343.40625 56.210938 342.820312 C 55.351562 342.234375 54.515625 341.511719 53.679688 340.664062 C 52.847656 339.816406 52.289062 338.828125 51.984375 337.6875 C 51.859375 337.117188 51.804688 336.574219 51.816406 336.058594 C 51.847656 334.976562 52.164062 333.945312 52.777344 332.972656 C 53.390625 332 54.152344 331.21875 55.070312 330.621094 C 55.792969 330.164062 56.617188 329.757812 57.546875 329.410156 C 58.476562 329.0625 59.589844 328.773438 60.898438 328.535156 C 62.203125 328.3125 64 328.144531 66.292969 328.035156 C 68.585938 327.921875 69.867188 327.855469 70.15625 327.8125 C 77.667969 327.394531 83.3125 327.226562 87.09375 327.324219 C 89.164062 327.382812 91.667969 327.5625 94.589844 327.867188 C 95.992188 328.523438 97.050781 329.523438 97.773438 330.886719 C 98.496094 332.25 98.828125 333.710938 98.800781 335.269531 C 98.773438 336.117188 98.523438 336.964844 98.035156 337.800781 C 97.550781 338.632812 96.703125 339.316406 95.503906 339.828125 C 94.308594 340.316406 92.90625 340.664062 91.292969 340.859375 Z M 91.292969 340.859375 " fill-opacity="1" fill-rule="evenodd"/><path fill="#173175" d="M 81.824219 280.257812 L 82.894531 277.097656 C 83.894531 274.300781 84.675781 272.480469 85.230469 271.644531 C 85.785156 270.8125 86.371094 270.269531 86.980469 269.992188 C 87.59375 269.726562 88.277344 269.726562 89.039062 269.976562 C 90.152344 270.351562 91.042969 270.894531 91.710938 271.589844 C 92.378906 272.285156 92.820312 273.066406 93.058594 273.914062 C 93.296875 274.761719 93.378906 275.75 93.324219 276.875 C 93.265625 278.003906 93.03125 279.378906 92.628906 281.019531 C 92.222656 282.648438 92 283.609375 91.960938 283.898438 L 92.835938 284.191406 C 94.003906 284.582031 95.128906 284.664062 96.230469 284.441406 C 97.328125 284.21875 98.203125 283.511719 98.84375 282.34375 C 99.203125 281.714844 99.675781 280.535156 100.273438 278.796875 C 100.566406 277.945312 100.902344 276.625 101.277344 274.832031 C 101.652344 273.035156 101.972656 271.769531 102.234375 271.007812 C 102.636719 269.796875 103.417969 268.960938 104.542969 268.503906 C 105.667969 268.042969 106.796875 267.988281 107.910156 268.378906 C 109.925781 269.058594 111.316406 270.296875 112.109375 272.078125 C 112.898438 273.859375 113.191406 275.929688 112.996094 278.28125 C 112.800781 280.632812 112.289062 283.011719 111.480469 285.429688 C 110.941406 287.042969 110.203125 288.753906 109.285156 290.589844 C 108.367188 292.425781 107.253906 294.011719 105.949219 295.363281 C 104.640625 296.710938 103.304688 297.628906 101.957031 298.117188 C 100.941406 298.464844 99.523438 298.65625 97.730469 298.699219 C 95.921875 298.742188 93.710938 298.503906 91.097656 297.992188 C 88.484375 297.476562 85.882812 296.78125 83.285156 295.902344 C 79.972656 294.792969 76.945312 293.414062 74.175781 291.816406 C 71.410156 290.199219 69.183594 288.558594 67.488281 286.863281 C 65.792969 285.164062 64.707031 283.414062 64.222656 281.605469 C 63.832031 279.976562 63.734375 277.820312 63.941406 275.125 C 64.152344 272.425781 64.707031 269.769531 65.597656 267.125 C 66.304688 265.023438 67.183594 263.230469 68.238281 261.742188 C 69.296875 260.253906 70.464844 259.226562 71.757812 258.640625 C 73.050781 258.054688 74.480469 258.027344 76.039062 258.558594 C 76.929688 258.863281 77.472656 259.101562 77.667969 259.253906 C 77.945312 259.449219 78.238281 259.765625 78.527344 260.226562 C 78.820312 260.671875 79 261.296875 79.058594 262.089844 C 79.113281 262.882812 79.070312 263.703125 78.933594 264.550781 C 78.792969 265.402344 78.167969 267.738281 77.054688 271.535156 C 75.941406 275.347656 76.179688 277.765625 77.777344 278.808594 C 78.265625 279.128906 78.988281 279.433594 79.917969 279.753906 Z M 83.796875 226.925781 C 82.617188 228.972656 81.226562 230.417969 79.625 231.265625 C 78.027344 232.117188 76.46875 232.40625 74.96875 232.144531 C 73.46875 231.878906 72.175781 231.433594 71.117188 230.820312 C 70.503906 230.472656 70.144531 229.917969 70.019531 229.167969 C 69.90625 228.414062 70.03125 227.71875 70.410156 227.066406 C 70.976562 226.078125 71.925781 225.648438 73.246094 225.757812 C 74.566406 225.871094 75.34375 225.910156 75.582031 225.882812 C 75.984375 225.84375 76.539062 225.675781 77.222656 225.355469 C 77.917969 225.050781 78.402344 224.644531 78.679688 224.160156 C 79.335938 223.019531 79.40625 221.851562 78.890625 220.683594 C 78.863281 220.558594 78.777344 220.347656 78.640625 220.042969 C 78.515625 219.75 78.167969 219.039062 77.609375 217.941406 C 77.054688 216.828125 77.027344 215.800781 77.527344 214.824219 C 78.332031 213.433594 79.710938 213.308594 81.671875 214.4375 C 82.492188 214.910156 83.285156 215.730469 84.046875 216.914062 C 84.8125 218.09375 85.214844 219.625 85.246094 221.515625 C 85.257812 223.394531 84.785156 225.203125 83.796875 226.925781 Z M 103.429688 227.84375 C 104.320312 227.332031 105.15625 226.414062 105.90625 225.105469 C 106.78125 223.589844 107.199219 222.253906 107.15625 221.085938 C 107.117188 219.917969 106.585938 219.039062 105.574219 218.457031 C 104.015625 217.566406 102.320312 217.105469 100.484375 217.078125 C 98.648438 217.050781 96.8125 217.441406 94.992188 218.246094 C 93.167969 219.054688 91.433594 220.222656 89.792969 221.753906 C 88.148438 223.28125 86.746094 225.078125 85.5625 227.121094 C 83.964844 229.902344 83.074219 232.839844 82.878906 235.914062 C 82.6875 238.988281 83.128906 241.976562 84.214844 244.882812 C 85.300781 247.792969 86.914062 250.476562 89.054688 252.9375 C 91.210938 255.398438 93.710938 257.457031 96.578125 259.101562 C 98.828125 260.394531 101.125 261.367188 103.460938 262.035156 C 105.796875 262.703125 108.035156 263.078125 110.160156 263.160156 C 112.289062 263.246094 114.402344 262.996094 116.5 262.4375 C 118.601562 261.867188 120.589844 260.867188 122.480469 259.417969 C 124.371094 257.972656 126.011719 256.09375 127.386719 253.785156 C 128.722656 251.5625 129.683594 249.183594 130.265625 246.664062 C 130.851562 244.132812 130.960938 241.644531 130.601562 239.179688 C 130.253906 236.71875 129.347656 234.425781 127.917969 232.28125 C 126.46875 230.152344 124.523438 228.375 122.078125 226.96875 L 121.769531 226.789062 C 120.128906 225.84375 118.449219 225.175781 116.722656 224.785156 C 114 224.3125 111.828125 225.257812 110.1875 227.636719 C 109.773438 228.164062 109.1875 229.097656 108.410156 230.445312 C 106.710938 233.394531 105.949219 235.648438 106.113281 237.207031 C 106.28125 238.765625 107.089844 239.972656 108.5625 240.824219 C 109.339844 241.269531 110.035156 241.558594 110.660156 241.710938 C 111.289062 241.851562 111.914062 241.726562 112.523438 241.308594 C 113.136719 240.90625 113.664062 240.335938 114.082031 239.597656 L 115.765625 236.816406 L 116.125 237.027344 C 117.113281 237.59375 117.765625 238.652344 118.101562 240.195312 C 118.433594 241.753906 118.101562 243.4375 117.113281 245.261719 C 116.265625 246.734375 115.179688 247.832031 113.859375 248.570312 C 112.539062 249.308594 110.980469 249.628906 109.1875 249.515625 C 107.394531 249.40625 105.417969 248.738281 103.25 247.484375 C 101.859375 246.679688 100.46875 245.621094 99.078125 244.3125 C 97.6875 242.992188 96.703125 241.585938 96.117188 240.085938 C 95.535156 238.582031 95.324219 237.234375 95.464844 236.039062 C 95.601562 234.839844 95.949219 233.769531 96.492188 232.824219 C 97.523438 231.03125 98.882812 229.792969 100.539062 229.109375 C 102.195312 228.441406 103.167969 228.027344 103.429688 227.84375 Z M 100.484375 188.273438 C 100.707031 187.660156 101.109375 187.007812 101.691406 186.324219 C 102.625 185.253906 103.679688 184.613281 104.890625 184.421875 C 106.101562 184.210938 107.28125 184.628906 108.464844 185.644531 C 109.425781 186.480469 109.964844 187.480469 110.078125 188.632812 C 110.1875 189.804688 109.675781 191.039062 108.535156 192.363281 C 107.546875 193.503906 106.488281 194.113281 105.351562 194.199219 C 104.222656 194.28125 103.265625 193.976562 102.472656 193.292969 C 100.679688 191.722656 100.011719 190.054688 100.484375 188.273438 Z M 123.273438 196.785156 L 128.195312 201.152344 L 133.4375 205.703125 L 141.652344 213.199219 C 142.40625 213.851562 143.113281 214.03125 143.796875 213.742188 C 145.15625 213.171875 146.1875 212.921875 146.882812 212.988281 C 147.578125 213.058594 148.46875 213.574219 149.578125 214.535156 C 150.789062 215.589844 151.5 216.59375 151.679688 217.566406 C 151.859375 218.539062 151.761719 219.386719 151.386719 220.125 C 150.832031 221.195312 149.023438 223.503906 145.964844 227.039062 C 143.835938 229.5 142.140625 231.015625 140.875 231.574219 C 139.609375 232.128906 138.121094 231.671875 136.414062 230.183594 C 134.730469 228.734375 134.019531 227.429688 134.269531 226.273438 C 134.703125 224.339844 134.644531 223.101562 134.105469 222.574219 L 122.4375 212.363281 L 118.515625 208.777344 C 116.988281 207.441406 115.820312 206.632812 115.027344 206.3125 C 114.191406 205.964844 113.234375 206.105469 112.148438 206.714844 C 111.539062 207.066406 110.84375 207.09375 110.050781 206.8125 C 109.257812 206.535156 108.507812 206.089844 107.796875 205.464844 C 106.617188 204.449219 105.878906 203.488281 105.585938 202.613281 C 105.292969 201.792969 105.40625 200.75 105.933594 199.457031 C 106.460938 198.164062 107.628906 196.464844 109.453125 194.363281 L 110.523438 193.140625 C 112.746094 190.566406 114.625 188.941406 116.167969 188.246094 C 117.710938 187.550781 119.199219 187.773438 120.660156 188.898438 L 121.242188 189.414062 C 122.0625 190.121094 122.660156 190.929688 123.050781 191.820312 C 123.425781 192.710938 123.371094 193.878906 122.871094 195.324219 C 122.703125 195.785156 122.828125 196.285156 123.273438 196.785156 Z M 128.402344 183.863281 C 129.667969 185.324219 130.890625 186.382812 132.058594 187.007812 C 133.242188 187.648438 134.132812 187.882812 134.742188 187.730469 C 135.925781 187.648438 137.21875 187.117188 138.625 186.144531 C 138.789062 186.0625 139.136719 185.824219 139.652344 185.433594 C 140.167969 185.058594 140.945312 184.460938 142.015625 183.667969 C 143.074219 182.875 143.640625 182.445312 143.710938 182.390625 L 150.96875 191.640625 C 152.75 193.90625 154.597656 196.144531 156.503906 198.355469 C 159.4375 201.75 161.730469 204.183594 163.402344 205.671875 C 164.414062 205.980469 165.554688 205.910156 166.820312 205.464844 C 168.085938 205.019531 169.210938 204.378906 170.171875 203.546875 C 171.453125 202.433594 172.382812 201.140625 172.953125 199.679688 C 173.523438 198.21875 173.730469 196.773438 173.566406 195.351562 L 171.355469 192.683594 C 169.8125 190.902344 167.445312 188.316406 164.277344 184.949219 C 159.492188 179.859375 156.144531 176.199219 154.222656 173.988281 L 153.570312 173.238281 C 153.902344 172.820312 154.570312 172.039062 155.574219 170.898438 C 156.574219 169.746094 157.4375 168.6875 158.160156 167.730469 C 158.882812 166.753906 159.453125 165.765625 159.882812 164.738281 C 160.3125 163.707031 160.46875 162.734375 160.339844 161.804688 C 160.230469 160.871094 159.828125 160.023438 159.144531 159.230469 C 157.351562 157.15625 155.390625 156.140625 153.265625 156.171875 C 151.136719 156.199219 148.660156 157.4375 145.851562 159.882812 L 134.898438 169.1875 L 128.097656 175.074219 C 127.207031 175.851562 126.636719 176.769531 126.386719 177.867188 C 126.136719 178.953125 126.234375 180.023438 126.679688 181.082031 C 127.164062 182.152344 127.722656 183.070312 128.402344 183.863281 Z M 166.308594 132.925781 C 166.722656 132.414062 167.320312 131.941406 168.085938 131.496094 C 169.308594 130.785156 170.535156 130.535156 171.730469 130.742188 C 172.925781 130.953125 173.925781 131.730469 174.703125 133.082031 C 175.34375 134.179688 175.523438 135.304688 175.246094 136.445312 C 174.96875 137.585938 174.078125 138.589844 172.5625 139.449219 C 171.257812 140.203125 170.046875 140.4375 168.960938 140.132812 C 167.863281 139.839844 167.058594 139.242188 166.542969 138.339844 C 165.359375 136.25 165.277344 134.445312 166.308594 132.925781 Z M 185.035156 148.449219 L 188.261719 154.195312 L 191.722656 160.203125 L 197.019531 169.980469 C 197.523438 170.84375 198.132812 171.246094 198.871094 171.207031 C 200.34375 171.121094 201.402344 171.21875 202.027344 171.511719 C 202.652344 171.804688 203.332031 172.582031 204.070312 173.847656 C 204.878906 175.238281 205.195312 176.421875 205.058594 177.410156 C 204.917969 178.398438 204.542969 179.164062 203.945312 179.734375 C 203.070312 180.566406 200.59375 182.152344 196.546875 184.476562 C 193.726562 186.101562 191.625 186.964844 190.25 187.078125 C 188.875 187.1875 187.621094 186.257812 186.496094 184.292969 C 185.398438 182.375 185.148438 180.902344 185.757812 179.898438 C 186.800781 178.214844 187.148438 177.019531 186.816406 176.351562 L 179.15625 162.875 L 176.636719 158.199219 C 175.621094 156.449219 174.800781 155.28125 174.148438 154.722656 C 173.480469 154.125 172.523438 153.945312 171.296875 154.167969 C 170.601562 154.292969 169.9375 154.097656 169.28125 153.570312 C 168.628906 153.039062 168.074219 152.371094 167.601562 151.550781 C 166.820312 150.203125 166.445312 149.0625 166.445312 148.128906 C 166.433594 147.269531 166.890625 146.308594 167.820312 145.265625 C 168.738281 144.222656 170.410156 142.996094 172.828125 141.605469 L 174.230469 140.800781 C 177.179688 139.101562 179.488281 138.183594 181.171875 138.03125 C 182.851562 137.878906 184.1875 138.574219 185.1875 140.132812 L 185.578125 140.8125 C 186.121094 141.761719 186.425781 142.707031 186.496094 143.679688 C 186.566406 144.652344 186.121094 145.722656 185.175781 146.933594 C 184.8125 147.324219 184.785156 147.839844 185.035156 148.449219 Z M 240.277344 157.171875 C 241.015625 158.617188 241.835938 159.8125 242.726562 160.761719 C 243.613281 161.707031 244.546875 162.261719 245.492188 162.441406 C 246.453125 162.625 247.328125 162.566406 248.132812 162.289062 C 249.609375 161.789062 250.859375 160.96875 251.886719 159.828125 C 252.917969 158.6875 253.5 157.339844 253.625 155.808594 C 252.917969 152.957031 252.222656 150.550781 251.554688 148.589844 C 250.34375 145.015625 248.246094 139.769531 245.253906 132.859375 C 245.117188 132.609375 244.601562 131.425781 243.710938 129.3125 C 242.824219 127.195312 242.042969 125.570312 241.390625 124.414062 C 240.722656 123.273438 240.070312 122.316406 239.414062 121.5625 C 238.761719 120.8125 238.09375 120.171875 237.425781 119.65625 C 236.566406 119.003906 235.5625 118.558594 234.4375 118.324219 C 233.3125 118.085938 232.226562 118.128906 231.199219 118.476562 C 230.710938 118.640625 230.210938 118.878906 229.722656 119.199219 C 228.75 119.878906 228.015625 120.742188 227.511719 121.8125 C 227 122.882812 226.625 123.929688 226.359375 124.929688 C 226.109375 125.945312 225.902344 127.042969 225.777344 128.269531 C 225.636719 129.476562 225.539062 131.535156 225.46875 134.429688 C 225.398438 137.324219 225.261719 139.101562 225.039062 139.769531 C 224.816406 140.4375 224.523438 140.839844 224.175781 140.96875 C 223.371094 141.246094 221.757812 139.796875 219.308594 136.640625 C 216.875 133.484375 215.140625 131.3125 214.125 130.132812 C 213.109375 128.964844 212.164062 128.046875 211.289062 127.390625 C 210.425781 126.738281 209.703125 126.335938 209.160156 126.167969 C 207.421875 125.609375 205.863281 125.570312 204.488281 126.027344 C 203.777344 126.265625 203.070312 126.75 202.359375 127.460938 C 201.652344 128.171875 201.136719 129.171875 200.789062 130.453125 C 200.457031 131.730469 200.332031 133.164062 200.398438 134.734375 C 200.457031 136.515625 200.664062 138.601562 201.027344 140.996094 C 201.386719 143.386719 201.929688 146.097656 202.652344 149.117188 C 203.375 152.136719 205.226562 158.644531 208.214844 168.648438 L 208.351562 169.050781 C 209.078125 171.191406 209.996094 172.582031 211.105469 173.195312 C 212.21875 173.820312 213.609375 173.835938 215.320312 173.265625 C 217.78125 172.429688 219.394531 171.234375 220.160156 169.691406 C 220.546875 168.910156 220.699219 167.910156 220.632812 166.683594 C 220.519531 165.324219 219.894531 162.945312 218.738281 159.550781 C 217.824219 156.824219 217.308594 155.042969 217.195312 154.207031 C 217.085938 153.375 217.058594 152.75 217.128906 152.332031 C 217.585938 152.679688 218.613281 153.636719 220.199219 155.25 C 221.785156 156.851562 223.121094 158.035156 224.203125 158.796875 C 225.273438 159.550781 226.289062 160.050781 227.25 160.273438 C 228.195312 160.496094 229.113281 160.46875 230.015625 160.160156 L 230.28125 160.066406 C 230.863281 159.871094 231.421875 159.453125 231.949219 158.828125 C 232.476562 158.199219 232.949219 157.269531 233.351562 156.03125 C 233.757812 154.792969 234.117188 152.832031 234.425781 150.132812 C 234.730469 147.433594 234.980469 145.960938 235.160156 145.695312 C 235.34375 145.433594 235.480469 145.292969 235.578125 145.25 Z M 290.417969 111.5625 C 293.113281 113.34375 294.546875 115.457031 294.726562 117.90625 C 294.867188 119.699219 294.449219 121.175781 293.503906 122.328125 C 292.542969 123.484375 291.152344 124.136719 289.320312 124.277344 C 288.429688 124.34375 287.332031 124.21875 286.023438 123.886719 C 285.828125 123.859375 284.9375 123.59375 283.339844 123.09375 C 281.742188 122.605469 280.335938 122.398438 279.113281 122.496094 C 276.902344 122.664062 275.121094 123.300781 273.757812 124.386719 C 272.398438 125.484375 271.4375 126.890625 270.882812 128.617188 C 270.324219 130.339844 270.117188 132.164062 270.269531 134.09375 C 270.378906 135.554688 270.839844 137.03125 271.632812 138.53125 C 272.4375 140.035156 273.566406 141.21875 275.023438 142.078125 C 276.484375 142.941406 278.042969 143.332031 279.695312 143.25 C 282.242188 143.152344 284.605469 142.246094 286.761719 140.550781 C 288.929688 138.851562 290.359375 137.878906 291.085938 137.628906 C 291.792969 137.378906 292.417969 137.238281 292.933594 137.199219 L 294.351562 137.15625 C 295.3125 137.265625 296.144531 137.671875 296.855469 138.351562 C 297.5625 139.035156 297.96875 139.964844 298.0625 141.132812 C 298.132812 142.023438 298.105469 142.859375 297.96875 143.625 C 297.746094 145.054688 297.214844 146.53125 296.382812 148.03125 C 295.546875 149.535156 294.339844 150.941406 292.765625 152.246094 C 291.183594 153.554688 289.332031 154.667969 287.203125 155.585938 C 285.078125 156.503906 282.878906 157.046875 280.628906 157.226562 C 277.472656 157.464844 274.511719 157.03125 271.730469 155.917969 C 268.949219 154.808594 266.542969 153.179688 264.511719 151.039062 C 262.484375 148.894531 260.855469 146.433594 259.617188 143.636719 C 258.394531 140.839844 257.660156 137.960938 257.4375 135 C 257.3125 133.441406 257.351562 131.660156 257.519531 129.628906 C 257.699219 127.601562 258.160156 125.527344 258.921875 123.386719 C 259.6875 121.242188 260.703125 119.28125 261.984375 117.5 C 263.261719 115.722656 264.820312 114.175781 266.625 112.855469 C 268.449219 111.535156 270.3125 110.574219 272.230469 109.976562 C 274.148438 109.378906 275.902344 109.003906 277.5 108.835938 C 279 108.667969 280.628906 108.695312 282.367188 108.890625 C 284.105469 109.085938 285.675781 109.449219 287.066406 109.949219 C 288.457031 110.492188 289.570312 111.019531 290.417969 111.5625 Z M 315.542969 97.945312 C 316.167969 97.75 316.933594 97.695312 317.824219 97.765625 C 319.242188 97.875 320.378906 98.347656 321.257812 99.195312 C 322.132812 100.046875 322.523438 101.242188 322.398438 102.800781 C 322.300781 104.066406 321.828125 105.09375 320.949219 105.886719 C 320.089844 106.679688 318.78125 107 317.042969 106.875 C 315.542969 106.765625 314.414062 106.277344 313.679688 105.414062 C 312.941406 104.550781 312.609375 103.605469 312.691406 102.578125 C 312.886719 100.15625 313.832031 98.625 315.542969 97.945312 Z M 322.285156 121.328125 L 321.714844 127.890625 L 321.1875 134.804688 L 320.0625 145.863281 C 319.992188 146.851562 320.269531 147.53125 320.894531 147.921875 C 322.160156 148.6875 322.980469 149.355469 323.328125 149.953125 C 323.691406 150.550781 323.816406 151.578125 323.703125 153.039062 C 323.578125 154.640625 323.191406 155.808594 322.523438 156.53125 C 321.855469 157.253906 321.105469 157.6875 320.296875 157.8125 C 319.101562 158.007812 316.167969 157.921875 311.511719 157.574219 C 308.269531 157.324219 306.046875 156.867188 304.835938 156.183594 C 303.640625 155.503906 303.125 154.027344 303.292969 151.773438 C 303.460938 149.5625 304.085938 148.214844 305.15625 147.726562 C 306.964844 146.921875 307.921875 146.140625 308.035156 145.390625 L 309.285156 129.9375 L 309.828125 124.652344 C 309.980469 122.632812 309.953125 121.203125 309.730469 120.382812 C 309.507812 119.519531 308.828125 118.824219 307.6875 118.308594 C 307.046875 118.015625 306.601562 117.472656 306.351562 116.679688 C 306.101562 115.875 306.015625 115.011719 306.085938 114.066406 C 306.199219 112.507812 306.53125 111.355469 307.058594 110.589844 C 307.546875 109.867188 308.449219 109.335938 309.8125 108.988281 C 311.164062 108.640625 313.234375 108.570312 316 108.78125 L 317.628906 108.90625 C 321.019531 109.171875 323.441406 109.699219 324.925781 110.519531 C 326.402344 111.339844 327.125 112.675781 327.070312 114.511719 L 327.011719 115.289062 C 326.929688 116.375 326.652344 117.335938 326.152344 118.167969 C 325.664062 119.003906 324.691406 119.65625 323.230469 120.117188 C 322.746094 120.269531 322.425781 120.671875 322.285156 121.328125 Z M 339.402344 115.527344 C 339.707031 114.816406 340.234375 114.207031 340.988281 113.675781 C 341.738281 113.148438 342.613281 112.84375 343.601562 112.757812 C 344.589844 112.675781 345.476562 112.71875 346.257812 112.898438 C 349.105469 113.550781 350.914062 114.496094 351.664062 115.707031 C 352.429688 116.917969 352.652344 118.53125 352.332031 120.546875 L 352.027344 122.21875 C 352 122.316406 351.929688 122.566406 351.820312 122.96875 C 351.695312 123.371094 350.984375 125.972656 349.664062 130.757812 C 348.34375 135.542969 347.3125 139.535156 346.5625 142.761719 C 346.035156 145.054688 345.8125 146.53125 345.910156 147.183594 C 347.089844 147.742188 349.066406 148.367188 351.832031 149.0625 C 354.597656 149.742188 356.683594 150.523438 358.089844 151.386719 C 359.105469 152.011719 359.785156 152.761719 360.121094 153.636719 C 360.453125 154.515625 360.46875 155.613281 360.148438 156.949219 C 359.785156 158.507812 359.3125 159.8125 358.742188 160.84375 C 358.171875 161.871094 357.503906 162.652344 356.753906 163.179688 C 356.003906 163.707031 354.988281 164.054688 353.722656 164.222656 C 352.445312 164.390625 349.925781 164.042969 346.160156 163.167969 L 343.488281 162.472656 C 341.390625 161.941406 339.554688 161.289062 337.984375 160.539062 C 336.414062 159.785156 335.078125 158.882812 333.992188 157.839844 C 332.910156 156.78125 332.117188 155.53125 331.628906 154.054688 C 331.144531 152.582031 330.976562 150.898438 331.128906 148.992188 C 331.53125 144.527344 332.253906 140.019531 333.296875 135.472656 C 334.578125 129.8125 336.621094 123.164062 339.402344 115.527344 Z M 386.039062 145.308594 L 389.066406 146.683594 C 391.75 147.949219 393.488281 148.910156 394.269531 149.535156 C 395.046875 150.175781 395.535156 150.800781 395.742188 151.441406 C 395.949219 152.082031 395.882812 152.761719 395.546875 153.484375 C 395.0625 154.554688 394.433594 155.390625 393.683594 155.988281 C 392.917969 156.574219 392.113281 156.949219 391.238281 157.101562 C 390.359375 157.253906 389.375 157.242188 388.261719 157.074219 C 387.148438 156.90625 385.800781 156.546875 384.214844 155.976562 C 382.628906 155.417969 381.699219 155.097656 381.421875 155.03125 L 381.046875 155.863281 C 380.542969 156.976562 380.351562 158.101562 380.460938 159.214844 C 380.574219 160.328125 381.183594 161.273438 382.296875 162.027344 C 382.878906 162.441406 384.019531 163.042969 385.6875 163.792969 C 386.511719 164.167969 387.789062 164.628906 389.527344 165.183594 C 391.265625 165.738281 392.503906 166.183594 393.238281 166.519531 C 394.394531 167.046875 395.160156 167.894531 395.507812 169.0625 C 395.855469 170.234375 395.785156 171.359375 395.3125 172.429688 C 394.433594 174.363281 393.074219 175.644531 391.222656 176.253906 C 389.375 176.867188 387.273438 176.964844 384.964844 176.535156 C 382.644531 176.101562 380.324219 175.363281 378 174.320312 C 376.457031 173.625 374.816406 172.722656 373.078125 171.636719 C 371.339844 170.539062 369.867188 169.285156 368.65625 167.855469 C 367.433594 166.421875 366.65625 165.003906 366.308594 163.613281 C 366.054688 162.570312 366 161.136719 366.140625 159.339844 C 366.277344 157.546875 366.738281 155.363281 367.503906 152.804688 C 368.265625 150.246094 369.210938 147.726562 370.339844 145.238281 C 371.769531 142.050781 373.425781 139.160156 375.304688 136.570312 C 377.179688 133.96875 379.042969 131.910156 380.890625 130.394531 C 382.742188 128.878906 384.589844 127.960938 386.441406 127.65625 C 388.09375 127.417969 390.265625 127.542969 392.917969 128.015625 C 395.574219 128.492188 398.175781 129.3125 400.707031 130.453125 C 402.722656 131.371094 404.433594 132.414062 405.808594 133.609375 C 407.183594 134.804688 408.101562 136.070312 408.546875 137.421875 C 409.007812 138.769531 408.882812 140.1875 408.214844 141.691406 C 407.824219 142.550781 407.53125 143.066406 407.351562 143.25 C 407.128906 143.511719 406.78125 143.761719 406.308594 144.011719 C 405.835938 144.261719 405.199219 144.375 404.40625 144.359375 C 403.613281 144.332031 402.804688 144.222656 401.972656 144 C 401.136719 143.777344 398.882812 142.929688 395.199219 141.441406 C 391.515625 139.953125 389.082031 139.953125 387.898438 141.441406 C 387.539062 141.898438 387.148438 142.582031 386.746094 143.484375 Z M 420.4375 199.777344 C 421.8125 200.695312 423.0625 201.140625 424.21875 201.109375 C 425.359375 201.082031 426.25 200.636719 426.875 199.75 C 427.234375 199.246094 427.554688 198.550781 427.847656 197.660156 C 428.140625 196.773438 428.304688 195.839844 428.347656 194.894531 C 428.402344 194.003906 428.347656 192.402344 428.167969 190.082031 C 428 187.757812 427.902344 186.074219 427.902344 185.019531 L 427.695312 180.789062 L 427.707031 180.273438 C 427.734375 180.234375 427.804688 180.21875 427.902344 180.246094 C 428 180.261719 428.179688 180.316406 428.429688 180.414062 C 428.683594 180.511719 428.835938 180.566406 428.863281 180.59375 C 430.042969 181.136719 431.519531 181.375 433.324219 181.289062 C 435.121094 181.207031 436.941406 180.691406 438.777344 179.734375 C 440.613281 178.773438 442.238281 177.296875 443.65625 175.308594 L 444.269531 174.445312 C 445.574219 172.359375 446.421875 170.300781 446.800781 168.257812 C 447.1875 166.210938 447.089844 164.222656 446.519531 162.289062 C 445.949219 160.355469 444.949219 158.492188 443.503906 156.710938 C 442.058594 154.933594 440.195312 153.222656 437.929688 151.609375 C 432.464844 147.726562 427.695312 146.503906 423.605469 147.9375 C 422.589844 148.3125 421.394531 148.894531 420.019531 149.6875 C 418.644531 150.480469 416.890625 152.21875 414.734375 154.917969 L 413.582031 156.53125 L 410.453125 160.816406 C 408.160156 164.042969 404.28125 169.828125 398.816406 178.160156 C 396.769531 181.277344 397.453125 184.058594 400.886719 186.492188 C 401.886719 187.203125 402.957031 187.703125 404.085938 187.980469 C 405.210938 188.257812 406.199219 188.230469 407.019531 187.898438 C 407.839844 187.550781 408.730469 186.882812 409.675781 185.878906 C 410.621094 184.878906 411.773438 183.40625 413.152344 181.484375 C 414.136719 180.09375 414.859375 178.910156 415.332031 177.925781 C 415.542969 178.941406 415.679688 180.957031 415.75 184.003906 C 415.820312 187.035156 415.988281 189.511719 416.238281 191.429688 C 416.488281 193.351562 416.972656 195.019531 417.667969 196.4375 C 418.363281 197.855469 419.214844 198.925781 420.214844 199.636719 Z M 433.644531 166.519531 C 432.601562 167.980469 431.324219 168.742188 429.792969 168.8125 C 428.265625 168.882812 426.734375 168.367188 425.191406 167.285156 C 424.925781 167.089844 424.453125 166.644531 423.800781 165.949219 L 428.640625 159.148438 C 429.695312 158.964844 430.90625 159.367188 432.296875 160.355469 C 433.257812 161.039062 433.894531 161.984375 434.230469 163.207031 C 434.550781 164.417969 434.355469 165.515625 433.644531 166.519531 Z M 474.550781 167.714844 C 475.164062 167.964844 475.789062 168.394531 476.429688 169.023438 C 477.457031 169.996094 478.042969 171.09375 478.179688 172.304688 C 478.320312 173.515625 477.863281 174.699219 476.789062 175.824219 C 475.914062 176.742188 474.886719 177.242188 473.71875 177.296875 C 472.550781 177.355469 471.339844 176.785156 470.074219 175.585938 C 468.976562 174.542969 468.421875 173.460938 468.394531 172.320312 C 468.363281 171.179688 468.710938 170.246094 469.421875 169.496094 C 471.105469 167.742188 472.800781 167.160156 474.550781 167.714844 Z M 464.972656 190.082031 L 460.382812 194.796875 L 455.601562 199.816406 L 447.730469 207.664062 C 447.050781 208.386719 446.828125 209.082031 447.078125 209.777344 C 447.578125 211.167969 447.773438 212.210938 447.675781 212.894531 C 447.578125 213.574219 447.023438 214.449219 446.007812 215.507812 C 444.894531 216.675781 443.851562 217.316406 442.878906 217.453125 C 441.890625 217.59375 441.054688 217.453125 440.332031 217.039062 C 439.289062 216.425781 437.066406 214.507812 433.6875 211.292969 C 431.335938 209.039062 429.90625 207.273438 429.40625 205.992188 C 428.902344 204.699219 429.433594 203.238281 431.003906 201.597656 C 432.535156 200 433.867188 199.34375 435.007812 199.652344 C 436.925781 200.179688 438.164062 200.179688 438.707031 199.664062 L 449.453125 188.496094 L 453.222656 184.753906 C 454.628906 183.28125 455.503906 182.167969 455.851562 181.386719 C 456.226562 180.582031 456.144531 179.605469 455.585938 178.496094 C 455.265625 177.867188 455.265625 177.171875 455.585938 176.394531 C 455.90625 175.617188 456.378906 174.890625 457.03125 174.210938 C 458.101562 173.082031 459.089844 172.386719 459.980469 172.136719 C 460.816406 171.886719 461.859375 172.054688 463.121094 172.640625 C 464.386719 173.222656 466.027344 174.476562 468.046875 176.40625 L 469.226562 177.535156 C 471.6875 179.886719 473.230469 181.832031 473.84375 183.40625 C 474.46875 184.976562 474.175781 186.464844 472.96875 187.855469 L 472.425781 188.425781 C 471.675781 189.203125 470.855469 189.773438 469.9375 190.109375 C 469.03125 190.441406 467.863281 190.332031 466.445312 189.761719 C 466 189.550781 465.5 189.664062 464.972656 190.082031 Z M 500.929688 214.242188 C 498.328125 210.195312 496.019531 207.855469 494.003906 207.246094 C 492.890625 206.898438 491.792969 207.066406 490.722656 207.761719 L 461.828125 226.289062 C 459.050781 228.234375 457.519531 230.445312 457.253906 232.921875 C 456.992188 235.398438 458.160156 238.652344 460.746094 242.699219 C 462.734375 245.800781 465 248.277344 467.570312 250.140625 C 470.128906 252.007812 472.84375 253.1875 475.707031 253.714844 C 478.558594 254.246094 481.492188 254.132812 484.507812 253.410156 C 487.511719 252.6875 490.488281 251.378906 493.433594 249.503906 C 496.367188 247.609375 498.816406 245.300781 500.75 242.546875 C 502.679688 239.792969 504 236.832031 504.710938 233.660156 C 505.421875 230.488281 505.460938 227.21875 504.820312 223.867188 C 504.195312 220.515625 502.890625 217.300781 500.929688 214.242188 Z M 491.765625 225.257812 C 492.433594 226.289062 492.667969 227.457031 492.488281 228.75 C 492.308594 230.042969 491.738281 231.40625 490.777344 232.839844 C 489.820312 234.269531 488.566406 235.480469 487.011719 236.46875 C 485.300781 237.566406 483.507812 238.222656 481.628906 238.445312 C 479.753906 238.667969 478.210938 238.484375 477 237.914062 C 475.789062 237.34375 474.898438 236.609375 474.316406 235.691406 C 473.828125 234.9375 473.632812 234.269531 473.71875 233.714844 L 489.5 223.589844 C 490.042969 223.644531 490.488281 223.824219 490.835938 224.160156 C 491.183594 224.492188 491.402344 224.714844 491.472656 224.839844 Z M 507.9375 267.613281 L 509.160156 270.714844 C 510.203125 273.496094 510.785156 275.386719 510.898438 276.390625 C 511.007812 277.390625 510.925781 278.183594 510.621094 278.78125 C 510.328125 279.378906 509.800781 279.824219 509.0625 280.117188 C 507.964844 280.546875 506.933594 280.714844 505.988281 280.605469 C 505.03125 280.492188 504.195312 280.199219 503.460938 279.699219 C 502.734375 279.199219 502.027344 278.503906 501.347656 277.597656 C 500.664062 276.695312 499.941406 275.5 499.203125 273.996094 C 498.453125 272.496094 498.007812 271.617188 497.871094 271.367188 L 497.007812 271.703125 C 495.867188 272.148438 494.949219 272.8125 494.253906 273.703125 C 493.558594 274.582031 493.351562 275.679688 493.613281 277 C 493.738281 277.710938 494.144531 278.921875 494.824219 280.632812 C 495.160156 281.464844 495.757812 282.691406 496.617188 284.304688 C 497.480469 285.917969 498.066406 287.097656 498.355469 287.835938 C 498.828125 289.019531 498.773438 290.160156 498.21875 291.246094 C 497.660156 292.328125 496.828125 293.082031 495.726562 293.527344 C 493.753906 294.304688 491.890625 294.261719 490.125 293.414062 C 488.375 292.566406 486.800781 291.175781 485.4375 289.253906 C 484.078125 287.335938 482.921875 285.195312 481.992188 282.816406 C 481.367188 281.230469 480.808594 279.449219 480.335938 277.460938 C 479.851562 275.472656 479.683594 273.539062 479.792969 271.660156 C 479.917969 269.78125 480.335938 268.222656 481.058594 266.972656 C 481.601562 266.039062 482.5625 264.984375 483.910156 263.789062 C 485.257812 262.589844 487.109375 261.351562 489.429688 260.046875 C 491.75 258.753906 494.199219 257.597656 496.742188 256.597656 C 499.996094 255.316406 503.195312 254.398438 506.335938 253.84375 C 509.492188 253.285156 512.261719 253.105469 514.652344 253.300781 C 517.042969 253.496094 519.003906 254.132812 520.535156 255.207031 C 521.882812 256.191406 523.355469 257.777344 524.925781 259.976562 C 526.5 262.171875 527.804688 264.566406 528.820312 267.152344 C 529.628906 269.210938 530.113281 271.160156 530.28125 272.96875 C 530.433594 274.777344 530.210938 276.332031 529.597656 277.613281 C 528.988281 278.894531 527.917969 279.839844 526.375 280.449219 C 525.496094 280.796875 524.925781 280.964844 524.675781 280.964844 C 524.328125 280.992188 523.914062 280.9375 523.382812 280.785156 C 522.871094 280.632812 522.328125 280.269531 521.785156 279.699219 C 521.242188 279.128906 520.726562 278.476562 520.285156 277.738281 C 519.839844 277 518.808594 274.816406 517.210938 271.1875 C 515.597656 267.558594 513.859375 265.859375 511.96875 266.097656 C 511.386719 266.164062 510.632812 266.386719 509.714844 266.75 Z M 507.9375 267.613281 " fill-opacity="1" fill-rule="evenodd"/><path fill="#173175" d="M 494.449219 330.734375 L 494.394531 330.453125 C 494.171875 329.246094 494.324219 327.894531 494.8125 326.394531 C 495.3125 324.890625 496.144531 323.359375 497.300781 321.816406 C 498.46875 320.273438 500.082031 318.382812 502.152344 316.171875 C 504.222656 313.957031 505.546875 312.414062 506.101562 311.539062 C 505.070312 311.914062 503.710938 312.246094 502.042969 312.554688 C 499.71875 312.972656 497.871094 313.207031 496.492188 313.261719 C 495.117188 313.320312 494.003906 313.179688 493.183594 312.84375 C 492.363281 312.511719 491.640625 311.859375 491.027344 310.855469 C 490.417969 309.867188 490.015625 308.757812 489.792969 307.558594 C 489.054688 303.429688 490.5 300.96875 494.144531 300.160156 C 503.875 298.03125 510.691406 296.628906 514.597656 295.933594 L 519.839844 295.070312 L 521.785156 294.722656 C 525.207031 294.304688 527.679688 294.289062 529.222656 294.695312 C 530.753906 295.097656 532.019531 295.515625 533.007812 295.960938 C 536.925781 297.796875 539.484375 302.023438 540.652344 308.617188 C 541.140625 311.359375 541.277344 313.875 541.070312 316.171875 C 540.863281 318.464844 540.277344 320.496094 539.320312 322.277344 C 538.359375 324.058594 537.039062 325.53125 535.328125 326.726562 C 533.617188 327.921875 531.574219 328.800781 529.183594 329.371094 L 528.140625 329.550781 C 525.71875 329.980469 523.523438 329.898438 521.546875 329.285156 C 519.574219 328.675781 517.917969 327.785156 516.570312 326.574219 C 515.234375 325.378906 514.332031 324.167969 513.875 322.957031 C 513.859375 322.917969 513.804688 322.761719 513.691406 322.527344 C 513.582031 322.289062 513.484375 322.125 513.429688 322.039062 C 513.359375 321.957031 513.316406 321.914062 513.261719 321.929688 L 512.898438 322.277344 L 510.089844 325.433594 C 509.367188 326.183594 508.242188 327.449219 506.742188 329.230469 C 505.238281 331.011719 504.15625 332.195312 503.5 332.792969 C 502.804688 333.445312 502.042969 333.988281 501.207031 334.417969 C 500.371094 334.851562 499.648438 335.128906 499.050781 335.238281 C 497.980469 335.433594 497.035156 335.128906 496.203125 334.351562 C 495.367188 333.542969 494.78125 332.347656 494.449219 330.734375 Z M 527.152344 316.253906 C 528.363281 316.042969 529.28125 315.378906 529.890625 314.292969 C 530.515625 313.195312 530.710938 312.066406 530.503906 310.914062 C 530.210938 309.242188 529.613281 308.101562 528.738281 307.492188 L 520.519531 308.964844 C 520.507812 309.925781 520.519531 310.566406 520.574219 310.898438 C 520.910156 312.761719 521.644531 314.195312 522.785156 315.210938 C 523.941406 316.210938 525.386719 316.574219 527.152344 316.253906 Z M 519.921875 354.03125 L 517.03125 353.890625 C 508.921875 353.445312 503.363281 352.933594 500.359375 352.335938 C 499.84375 352.222656 499.246094 351.917969 498.578125 351.402344 C 497.910156 350.886719 497.328125 350.152344 496.828125 349.203125 C 496.328125 348.246094 496.089844 347.367188 496.117188 346.5625 L 496.203125 346.144531 C 496.867188 341.917969 504.363281 339.984375 518.644531 340.34375 L 521.617188 340.414062 C 525.816406 340.527344 530.824219 341 536.664062 341.859375 C 538.457031 342.140625 539.945312 342.75 541.152344 343.667969 C 542.363281 344.601562 543.140625 345.546875 543.519531 346.519531 C 543.894531 347.492188 544.074219 348.316406 544.058594 348.980469 C 543.960938 352.667969 541.945312 355.839844 538.011719 358.539062 C 536.816406 359.359375 533.617188 361.195312 528.417969 364.03125 C 523.230469 366.871094 520.046875 368.664062 518.90625 369.386719 L 519.753906 369.414062 L 525.066406 369.261719 C 529.976562 369.386719 533.660156 369.722656 536.121094 370.292969 C 538.582031 370.847656 540.390625 371.722656 541.542969 372.90625 C 542.699219 374.089844 543.238281 375.535156 543.199219 377.230469 C 543.183594 377.941406 542.921875 378.691406 542.390625 379.472656 C 541.878906 380.265625 541.210938 380.792969 540.402344 381.058594 C 538.679688 381.960938 533.507812 382.296875 524.871094 382.085938 L 523.453125 382.046875 C 518.683594 381.917969 514.164062 381.460938 509.855469 380.667969 C 505.558594 379.875 501.917969 378.777344 498.925781 377.386719 C 497.996094 376.800781 497.257812 375.9375 496.6875 374.8125 C 496.132812 373.683594 495.855469 372.558594 495.894531 371.433594 C 495.980469 370.152344 496.535156 368.871094 497.59375 367.578125 C 498.632812 366.285156 500.179688 364.9375 502.222656 363.519531 C 504.265625 362.097656 507.464844 360.332031 511.800781 358.203125 C 516.167969 356.046875 518.867188 354.671875 519.921875 354.03125 Z M 519.878906 406.554688 L 519.128906 409.792969 C 518.421875 412.671875 517.824219 414.566406 517.351562 415.457031 C 516.878906 416.347656 516.347656 416.945312 515.765625 417.265625 C 515.179688 417.582031 514.5 417.667969 513.71875 417.484375 C 512.566406 417.222656 511.636719 416.777344 510.910156 416.152344 C 510.1875 415.523438 509.660156 414.800781 509.339844 413.96875 C 509.019531 413.148438 508.839844 412.171875 508.785156 411.046875 C 508.730469 409.917969 508.828125 408.527344 509.0625 406.859375 C 509.300781 405.191406 509.425781 404.214844 509.453125 403.9375 L 508.5625 403.730469 C 507.367188 403.453125 506.238281 403.480469 505.167969 403.8125 C 504.097656 404.148438 503.304688 404.925781 502.777344 406.164062 C 502.484375 406.816406 502.125 408.042969 501.707031 409.835938 C 501.511719 410.710938 501.304688 412.0625 501.109375 413.871094 C 500.914062 415.691406 500.71875 416.984375 500.539062 417.765625 C 500.246094 419.003906 499.566406 419.921875 498.496094 420.492188 C 497.425781 421.0625 496.3125 421.214844 495.160156 420.949219 C 493.085938 420.476562 491.570312 419.378906 490.613281 417.679688 C 489.652344 415.984375 489.152344 413.953125 489.109375 411.589844 C 489.066406 409.238281 489.347656 406.804688 489.917969 404.328125 C 490.292969 402.671875 490.863281 400.890625 491.585938 398.972656 C 492.320312 397.054688 493.265625 395.371094 494.433594 393.894531 C 495.601562 392.421875 496.828125 391.378906 498.132812 390.753906 C 499.105469 390.292969 500.496094 389.960938 502.292969 389.75 C 504.085938 389.527344 506.308594 389.554688 508.964844 389.804688 C 511.621094 390.058594 514.277344 390.488281 516.945312 391.101562 C 520.351562 391.878906 523.507812 392.9375 526.414062 394.269531 C 529.335938 395.59375 531.714844 397.027344 533.5625 398.542969 C 535.410156 400.058594 536.675781 401.699219 537.332031 403.4375 C 537.886719 405.023438 538.191406 407.164062 538.246094 409.863281 C 538.304688 412.5625 538.011719 415.273438 537.386719 417.988281 C 536.886719 420.144531 536.191406 422.019531 535.285156 423.605469 C 534.382812 425.191406 533.324219 426.332031 532.101562 427.042969 C 530.878906 427.75 529.460938 427.917969 527.847656 427.542969 C 526.929688 427.335938 526.359375 427.152344 526.152344 427 C 525.84375 426.832031 525.527344 426.542969 525.191406 426.125 C 524.859375 425.707031 524.621094 425.109375 524.484375 424.328125 C 524.34375 423.550781 524.300781 422.730469 524.359375 421.867188 C 524.414062 421.003906 524.800781 418.625 525.539062 414.730469 C 526.277344 410.835938 525.789062 408.445312 524.105469 407.570312 C 523.59375 407.304688 522.84375 407.054688 521.882812 406.832031 Z M 523.757812 460.117188 C 524.734375 457.960938 525.96875 456.390625 527.484375 455.390625 C 529 454.386719 530.515625 453.957031 532.046875 454.066406 C 533.574219 454.191406 534.898438 454.5 536.007812 455 C 536.648438 455.292969 537.066406 455.808594 537.261719 456.53125 C 537.441406 457.265625 537.386719 457.976562 537.078125 458.65625 C 536.605469 459.6875 535.71875 460.214844 534.382812 460.242188 C 533.046875 460.257812 532.269531 460.300781 532.046875 460.355469 C 531.644531 460.4375 531.113281 460.660156 530.460938 461.035156 C 529.792969 461.414062 529.347656 461.855469 529.125 462.371094 C 528.585938 463.582031 528.625 464.738281 529.265625 465.847656 C 529.308594 465.972656 529.417969 466.183594 529.570312 466.460938 C 529.726562 466.738281 530.140625 467.40625 530.808594 468.449219 C 531.476562 469.507812 531.601562 470.535156 531.199219 471.539062 C 530.53125 473 529.183594 473.261719 527.109375 472.332031 C 526.25 471.941406 525.386719 471.203125 524.511719 470.105469 C 523.632812 469.007812 523.09375 467.519531 522.882812 465.640625 C 522.648438 463.761719 522.953125 461.914062 523.757812 460.117188 Z M 504.140625 461.105469 C 503.292969 461.703125 502.570312 462.707031 501.945312 464.070312 C 501.222656 465.65625 500.941406 467.03125 501.09375 468.1875 C 501.25 469.339844 501.859375 470.160156 502.929688 470.648438 C 504.558594 471.386719 506.296875 471.675781 508.132812 471.523438 C 509.964844 471.371094 511.746094 470.800781 513.484375 469.828125 C 515.222656 468.855469 516.835938 467.519531 518.324219 465.835938 C 519.8125 464.152344 521.035156 462.234375 522.007812 460.078125 C 523.328125 457.15625 523.941406 454.152344 523.828125 451.078125 C 523.71875 448.003906 522.980469 445.070312 521.632812 442.273438 C 520.285156 439.492188 518.40625 436.972656 516.027344 434.734375 C 513.652344 432.496094 510.953125 430.6875 507.949219 429.335938 C 505.585938 428.265625 503.210938 427.515625 500.816406 427.082031 C 498.425781 426.652344 496.160156 426.5 494.03125 426.625 C 491.90625 426.75 489.820312 427.195312 487.804688 427.960938 C 485.773438 428.726562 483.882812 429.921875 482.144531 431.535156 C 480.40625 433.164062 478.960938 435.179688 477.804688 437.613281 C 476.695312 439.964844 475.96875 442.410156 475.636719 444.984375 C 475.304688 447.558594 475.429688 450.046875 476.027344 452.46875 C 476.609375 454.886719 477.738281 457.085938 479.378906 459.074219 C 481.019531 461.0625 483.132812 462.636719 485.703125 463.804688 L 486.023438 463.945312 C 487.746094 464.722656 489.484375 465.222656 491.25 465.445312 C 494.003906 465.65625 496.078125 464.5 497.480469 461.96875 C 497.84375 461.398438 498.34375 460.410156 498.980469 458.992188 C 500.386719 455.890625 500.929688 453.582031 500.609375 452.039062 C 500.289062 450.492188 499.371094 449.378906 497.8125 448.671875 C 496.992188 448.296875 496.269531 448.074219 495.632812 447.988281 C 494.992188 447.90625 494.394531 448.101562 493.808594 448.574219 C 493.238281 449.046875 492.78125 449.660156 492.417969 450.4375 L 491.015625 453.371094 L 490.625 453.191406 C 489.597656 452.71875 488.832031 451.730469 488.359375 450.230469 C 487.871094 448.710938 488.039062 447.003906 488.859375 445.097656 C 489.554688 443.550781 490.527344 442.34375 491.78125 441.480469 C 493.015625 440.617188 494.546875 440.160156 496.328125 440.089844 C 498.121094 440.019531 500.148438 440.492188 502.429688 441.535156 C 503.890625 442.203125 505.378906 443.121094 506.894531 444.289062 C 508.410156 445.472656 509.523438 446.78125 510.246094 448.210938 C 510.96875 449.660156 511.316406 450.980469 511.289062 452.175781 C 511.257812 453.386719 511.023438 454.472656 510.578125 455.472656 C 509.714844 457.363281 508.492188 458.726562 506.90625 459.5625 C 505.292969 460.382812 504.378906 460.898438 504.140625 461.105469 Z M 511.441406 500.609375 C 511.273438 501.25 510.941406 501.929688 510.410156 502.652344 C 509.589844 503.808594 508.589844 504.546875 507.410156 504.863281 C 506.226562 505.183594 505.003906 504.894531 503.738281 503.988281 C 502.695312 503.25 502.070312 502.304688 501.832031 501.164062 C 501.609375 500.023438 502 498.730469 503.015625 497.3125 C 503.890625 496.089844 504.890625 495.363281 506.003906 495.183594 C 507.117188 494.988281 508.101562 495.199219 508.953125 495.808594 C 510.925781 497.199219 511.746094 498.800781 511.441406 500.609375 Z M 487.957031 494.320312 L 482.628906 490.457031 L 476.984375 486.433594 L 468.101562 479.757812 C 467.292969 479.1875 466.558594 479.078125 465.917969 479.410156 C 464.609375 480.105469 463.609375 480.453125 462.929688 480.453125 C 462.234375 480.453125 461.289062 480.023438 460.105469 479.175781 C 458.796875 478.242188 458.007812 477.3125 457.726562 476.351562 C 457.449219 475.40625 457.464844 474.542969 457.769531 473.777344 C 458.226562 472.652344 459.800781 470.1875 462.511719 466.378906 C 464.402344 463.722656 465.945312 462.050781 467.15625 461.382812 C 468.363281 460.703125 469.878906 461.023438 471.730469 462.34375 C 473.539062 463.625 474.371094 464.863281 474.230469 466.03125 C 473.996094 468.003906 474.164062 469.230469 474.746094 469.703125 L 487.332031 478.742188 L 491.570312 481.929688 C 493.226562 483.109375 494.464844 483.804688 495.285156 484.042969 C 496.144531 484.308594 497.078125 484.070312 498.105469 483.359375 C 498.675781 482.957031 499.371094 482.859375 500.191406 483.054688 C 501 483.25 501.789062 483.625 502.570312 484.183594 C 503.835938 485.085938 504.667969 485.960938 505.042969 486.8125 C 505.417969 487.589844 505.390625 488.660156 505.003906 489.996094 C 504.597656 491.332031 503.597656 493.140625 501.984375 495.40625 L 501.039062 496.726562 C 499.066406 499.496094 497.355469 501.304688 495.894531 502.140625 C 494.433594 502.972656 492.917969 502.902344 491.363281 501.917969 L 490.722656 501.472656 C 489.832031 500.84375 489.164062 500.109375 488.691406 499.246094 C 488.234375 498.398438 488.179688 497.230469 488.527344 495.742188 C 488.625 495.269531 488.441406 494.78125 487.957031 494.320312 Z M 487.957031 494.320312 " fill-opacity="1" fill-rule="evenodd"/><path fill="#e0850d" d="M 301.09375 345.253906 C 301.09375 345.871094 301.066406 346.484375 301.003906 347.097656 C 300.941406 347.710938 300.851562 348.320312 300.730469 348.921875 C 300.609375 349.527344 300.457031 350.125 300.277344 350.714844 C 300.097656 351.304688 299.886719 351.882812 299.648438 352.449219 C 299.410156 353.019531 299.144531 353.578125 298.851562 354.121094 C 298.558594 354.664062 298.238281 355.191406 297.894531 355.703125 C 297.546875 356.214844 297.179688 356.707031 296.785156 357.183594 C 296.390625 357.660156 295.972656 358.117188 295.53125 358.550781 C 295.09375 358.988281 294.632812 359.402344 294.152344 359.792969 C 293.671875 360.183594 293.171875 360.546875 292.652344 360.890625 C 292.136719 361.234375 291.605469 361.550781 291.054688 361.839844 C 290.507812 362.128906 289.945312 362.394531 289.371094 362.628906 C 288.796875 362.863281 288.210938 363.070312 287.617188 363.25 C 287.019531 363.429688 286.417969 363.578125 285.808594 363.699219 C 285.199219 363.820312 284.582031 363.910156 283.964844 363.96875 C 283.34375 364.03125 282.722656 364.058594 282.101562 364.058594 C 281.480469 364.058594 280.859375 364.03125 280.242188 363.96875 C 279.621094 363.910156 279.007812 363.820312 278.398438 363.699219 C 277.785156 363.578125 277.183594 363.429688 276.589844 363.25 C 275.992188 363.070312 275.410156 362.863281 274.832031 362.628906 C 274.257812 362.394531 273.695312 362.128906 273.148438 361.839844 C 272.601562 361.550781 272.066406 361.234375 271.550781 360.890625 C 271.03125 360.546875 270.535156 360.183594 270.054688 359.792969 C 269.570312 359.402344 269.113281 358.988281 268.671875 358.550781 C 268.230469 358.117188 267.816406 357.660156 267.421875 357.183594 C 267.027344 356.707031 266.65625 356.214844 266.308594 355.703125 C 265.964844 355.191406 265.644531 354.664062 265.351562 354.121094 C 265.058594 353.578125 264.792969 353.019531 264.554688 352.449219 C 264.316406 351.882812 264.105469 351.304688 263.925781 350.714844 C 263.746094 350.125 263.59375 349.527344 263.472656 348.921875 C 263.351562 348.320312 263.261719 347.710938 263.199219 347.097656 C 263.140625 346.484375 263.109375 345.871094 263.109375 345.253906 C 263.109375 344.640625 263.140625 344.023438 263.199219 343.410156 C 263.261719 342.796875 263.351562 342.191406 263.472656 341.585938 C 263.59375 340.980469 263.746094 340.386719 263.925781 339.796875 C 264.105469 339.207031 264.316406 338.628906 264.554688 338.058594 C 264.792969 337.488281 265.058594 336.933594 265.351562 336.390625 C 265.644531 335.847656 265.964844 335.320312 266.308594 334.808594 C 266.65625 334.292969 267.027344 333.800781 267.421875 333.324219 C 267.816406 332.847656 268.230469 332.394531 268.671875 331.957031 C 269.113281 331.523438 269.570312 331.109375 270.054688 330.71875 C 270.535156 330.328125 271.03125 329.960938 271.550781 329.617188 C 272.066406 329.277344 272.601562 328.960938 273.148438 328.667969 C 273.695312 328.378906 274.257812 328.117188 274.832031 327.878906 C 275.410156 327.644531 275.992188 327.4375 276.589844 327.257812 C 277.183594 327.082031 277.785156 326.929688 278.398438 326.808594 C 279.007812 326.691406 279.621094 326.601562 280.242188 326.539062 C 280.859375 326.480469 281.480469 326.449219 282.101562 326.449219 C 282.722656 326.449219 283.34375 326.480469 283.964844 326.539062 C 284.582031 326.601562 285.199219 326.691406 285.808594 326.808594 C 286.417969 326.929688 287.019531 327.078125 287.617188 327.257812 C 288.210938 327.4375 288.796875 327.644531 289.371094 327.878906 C 289.945312 328.117188 290.507812 328.378906 291.054688 328.667969 C 291.605469 328.960938 292.136719 329.277344 292.652344 329.617188 C 293.171875 329.960938 293.671875 330.328125 294.152344 330.71875 C 294.632812 331.109375 295.09375 331.523438 295.53125 331.957031 C 295.972656 332.394531 296.390625 332.847656 296.785156 333.324219 C 297.179688 333.800781 297.546875 334.292969 297.894531 334.808594 C 298.238281 335.320312 298.558594 335.847656 298.851562 336.390625 C 299.144531 336.933594 299.410156 337.488281 299.648438 338.058594 C 299.886719 338.628906 300.097656 339.207031 300.277344 339.796875 C 300.457031 340.386719 300.609375 340.980469 300.730469 341.585938 C 300.851562 342.191406 300.941406 342.796875 301.003906 343.410156 C 301.066406 344.023438 301.09375 344.640625 301.09375 345.253906 Z M 301.09375 345.253906 " fill-opacity="1" fill-rule="nonzero"/><path fill="#e0850d" d="M 255.351562 375.605469 C 180.878906 284.289062 172.453125 140.898438 260.121094 249.027344 C 304.125 303.304688 320.992188 349.734375 325.777344 359.691406 L 333.339844 356.507812 C 333.339844 356.507812 303.070312 285.667969 271.660156 241.867188 C 240.25 198.078125 196.980469 187.203125 185.71875 216.382812 C 181.058594 228.441406 181.992188 244.980469 185.148438 260.558594 C 189.625 282.71875 202.667969 309.855469 245.410156 378.789062 Z M 255.351562 375.605469 " fill-opacity="1" fill-rule="evenodd"/><path fill="#dc240e" d="M 243.90625 441.96875 L 251.191406 441.96875 L 251.191406 449.253906 L 243.90625 449.253906 Z M 243.90625 441.96875 " fill-opacity="1" fill-rule="evenodd"/><path fill="#dc240e" d="M 319.507812 444.886719 L 326.648438 443.171875 L 328.359375 450.3125 L 321.222656 452.027344 Z M 319.507812 444.886719 " fill-opacity="1" fill-rule="evenodd"/><path fill="#dc240e" d="M 206.992188 378.804688 L 207.839844 386.746094 L 206.460938 386.871094 L 205.613281 378.804688 L 203.320312 378.804688 L 203.320312 374.742188 L 208.882812 374.742188 L 208.882812 378.804688 Z M 206.992188 378.804688 " fill-opacity="1" fill-rule="evenodd"/><path fill="#dc240e" d="M 221.144531 365.214844 L 224.078125 381.570312 L 222.730469 381.792969 L 219.753906 365.214844 L 217.445312 365.214844 L 217.445312 361.167969 L 223.007812 361.167969 L 223.007812 365.214844 Z M 221.144531 365.214844 " fill-opacity="1" fill-rule="evenodd"/><path fill="#dc240e" d="M 232.785156 370.152344 L 234.898438 369.804688 L 234.007812 360.804688 L 234.464844 360.75 L 254.015625 357.121094 L 252.195312 348.496094 L 249.871094 348.496094 L 249.871094 344.449219 L 255.433594 344.449219 L 255.433594 348.496094 L 253.585938 348.496094 L 258.964844 374.003906 L 257.644531 374.339844 L 254.292969 358.46875 L 235.507812 361.960938 L 236.273438 369.566406 L 237.707031 369.332031 L 238.234375 373.335938 L 233.324219 374.160156 Z M 232.785156 370.152344 " fill-opacity="1" fill-rule="evenodd"/><path fill="#dc240e" d="M 298.246094 339.039062 L 303.113281 339.039062 L 303.113281 343.375 L 298.246094 343.375 L 298.246094 341.917969 L 275.164062 346.464844 L 279.933594 372.558594 L 279.140625 372.699219 L 274.230469 345.78125 L 275.011719 345.644531 L 275.011719 345.671875 L 298.246094 341.109375 Z M 298.246094 339.039062 " fill-opacity="1" fill-rule="evenodd"/><path fill="#dc240e" d="M 301.777344 360.457031 L 300.289062 360.777344 L 298.535156 354.601562 L 298.21875 354.699219 L 287.050781 356.867188 L 286.621094 356.953125 L 283.480469 357.425781 L 285.523438 369.820312 L 286.46875 369.695312 L 284.550781 358.355469 L 297.84375 355.757812 L 299.328125 360.972656 L 298.328125 361.195312 L 299.023438 363.976562 L 302.472656 363.238281 Z M 301.777344 360.457031 " fill-opacity="1" fill-rule="evenodd"/><path fill="#e0850d" d="M 321.839844 349.316406 C 388.859375 267.890625 402.152344 159.800781 310.871094 247.066406 C 260.371094 295.347656 237.773438 339.273438 231.78125 348.550781 L 224.691406 344.433594 C 224.691406 344.433594 263.664062 277.976562 300.34375 238.5 C 337.023438 199.023438 381.324219 193.699219 388.816406 224.074219 C 391.917969 236.621094 388.902344 252.910156 383.8125 267.972656 C 377.445312 286.792969 364.027344 308.617188 326.164062 356.410156 C 324.800781 353.960938 323.316406 351.542969 321.839844 349.316406 Z M 321.839844 349.316406 " fill-opacity="1" fill-rule="evenodd"/><path fill="#e0850d" d="M 191.78125 219.777344 C 202.5 219.777344 211.175781 228.375 211.175781 238.988281 C 211.175781 249.597656 202.484375 258.195312 191.78125 258.195312 C 181.058594 258.195312 172.382812 249.597656 172.382812 238.988281 C 172.382812 228.375 181.058594 219.777344 191.78125 219.777344 Z M 191.78125 219.777344 " fill-opacity="1" fill-rule="evenodd"/><path stroke-linecap="butt" transform="matrix(1.390435, 0, 0, 1.390942, 13.69252, -66.714587)" fill-opacity="1" fill="#000000" fill-rule="evenodd" stroke-linejoin="miter" d="M 222.021108 312.139315 C 222.021108 312.139315 221.591274 305.699772 240.478686 297.120268 C 259.368907 288.52953 259.93921 288.52953 259.93921 288.52953 C 259.93921 288.52953 268.67074 291.540079 269.960242 294.539395 C 271.249744 297.538711 284.979148 334.170808 297.860121 334.600485 C 297.860121 334.600485 306.588842 335.030163 309.311124 321.151305 C 309.311124 321.151305 310.741095 333.87874 302.579867 339.470161 C 294.41864 345.05035 279.970036 330.46098 275.539656 321.729825 C 271.100847 312.998669 264.95113 297.409527 261.950721 297.549945 C 258.950311 297.690362 245.350138 304.278748 245.350138 304.278748 C 245.350138 304.278748 258.939073 325.459311 260.369044 330.609822 C 261.799014 335.760333 267.518897 351.06864 260.228575 365.950079 C 260.228575 365.950079 255.219464 342.480711 252.929825 334.190466 C 250.640186 325.888989 243.060499 306.429943 237.759213 307.14888 C 232.469164 307.870625 229.460326 311.159201 228.030356 313.72884 C 226.600385 316.290054 222.021108 312.139315 222.021108 312.139315 Z M 222.021108 312.139315 " stroke="#000000" stroke-width="0.567" stroke-opacity="1" stroke-miterlimit="22.926001"/><path fill="#0052a1" d="M 238.46875 301.539062 C 229.25 292.511719 216.90625 287.28125 203.460938 288.140625 C 179.390625 289.671875 159.742188 310.871094 157.9375 337.328125 C 156.269531 361.75 169.644531 383.074219 188.902344 391.253906 L 188.902344 419.824219 C 186.871094 419.265625 184.839844 418.625 182.851562 417.875 L 182.742188 410.296875 C 182.617188 401.683594 173.941406 396.582031 167.363281 401.253906 L 161.578125 405.355469 C 157.8125 402.1875 154.363281 398.625 151.25 394.746094 L 154.613281 388.09375 C 158.410156 380.570312 153.222656 371.375 145.410156 371.792969 L 138.539062 372.167969 C 137.648438 369.777344 136.855469 367.34375 136.160156 364.839844 C 135.46875 362.335938 134.898438 359.816406 134.4375 357.285156 L 140.347656 353.390625 C 147.0625 348.96875 146.742188 338.148438 139.777344 334.210938 L 133.632812 330.734375 C 134.257812 325.613281 135.328125 320.550781 136.855469 315.601562 L 143.738281 315.472656 C 151.566406 315.335938 156.199219 305.78125 151.957031 298.546875 L 148.21875 292.175781 C 151.109375 288.03125 154.335938 284.234375 157.851562 280.8125 L 163.886719 284.511719 C 170.726562 288.699219 179.085938 282.980469 178.695312 274.371094 L 178.363281 266.804688 C 180.53125 265.832031 182.753906 264.957031 185.023438 264.191406 C 187.289062 263.425781 189.582031 262.800781 191.875 262.285156 L 195.410156 268.78125 C 199.425781 276.167969 209.269531 275.820312 212.84375 268.15625 L 216 261.394531 C 220.660156 262.078125 225.261719 263.273438 229.753906 264.941406 L 229.863281 272.523438 C 229.988281 281.132812 238.664062 286.238281 245.242188 281.5625 L 251.027344 277.460938 C 254.792969 280.632812 258.242188 284.191406 261.355469 288.074219 L 257.992188 294.722656 C 256.949219 296.78125 256.601562 298.964844 256.769531 301.035156 C 254.085938 299.785156 251.152344 299.089844 248.050781 299.089844 C 244.644531 299.117188 241.390625 299.992188 238.46875 301.539062 Z M 238.46875 301.539062 " fill-opacity="1" fill-rule="evenodd"/><path fill="#e0850d" d="M 374.925781 309.980469 L 370.351562 319.925781 C 370.351562 319.925781 251.179688 287.183594 162.457031 318.632812 C 165.042969 313.457031 166.140625 311.425781 169.574219 306.542969 C 169.558594 306.542969 270.882812 268.378906 374.925781 309.980469 Z M 374.925781 309.980469 " fill-opacity="1" fill-rule="evenodd"/><path fill="#000000" d="M 388.054688 302.566406 C 398.273438 302.566406 406.558594 310.898438 406.558594 321.175781 C 406.558594 331.457031 398.273438 339.789062 388.054688 339.789062 C 377.832031 339.789062 369.546875 331.457031 369.546875 321.175781 C 369.546875 310.898438 377.832031 302.566406 388.054688 302.566406 Z M 388.054688 302.566406 " fill-opacity="1" fill-rule="evenodd"/><path fill="#ffffff" d="M 400.621094 321.175781 C 400.621094 322.007812 400.542969 322.828125 400.382812 323.644531 C 400.21875 324.457031 399.980469 325.25 399.664062 326.015625 C 399.351562 326.78125 398.960938 327.511719 398.503906 328.203125 C 398.046875 328.890625 397.523438 329.53125 396.941406 330.117188 C 396.359375 330.703125 395.722656 331.230469 395.035156 331.691406 C 394.351562 332.152344 393.625 332.539062 392.863281 332.859375 C 392.101562 333.175781 391.316406 333.417969 390.503906 333.578125 C 389.695312 333.738281 388.878906 333.820312 388.054688 333.820312 C 387.226562 333.820312 386.410156 333.738281 385.601562 333.578125 C 384.792969 333.417969 384.003906 333.175781 383.242188 332.859375 C 382.480469 332.539062 381.757812 332.152344 381.070312 331.691406 C 380.382812 331.230469 379.75 330.703125 379.164062 330.117188 C 378.582031 329.53125 378.058594 328.890625 377.601562 328.203125 C 377.144531 327.511719 376.757812 326.78125 376.441406 326.015625 C 376.125 325.25 375.886719 324.457031 375.726562 323.644531 C 375.5625 322.828125 375.484375 322.007812 375.484375 321.175781 C 375.484375 320.347656 375.5625 319.523438 375.726562 318.710938 C 375.886719 317.894531 376.125 317.105469 376.441406 316.339844 C 376.757812 315.570312 377.144531 314.84375 377.601562 314.152344 C 378.058594 313.460938 378.582031 312.824219 379.164062 312.238281 C 379.75 311.648438 380.382812 311.125 381.070312 310.664062 C 381.757812 310.203125 382.480469 309.8125 383.242188 309.496094 C 384.003906 309.179688 384.792969 308.9375 385.601562 308.777344 C 386.410156 308.613281 387.226562 308.535156 388.054688 308.535156 C 388.878906 308.535156 389.695312 308.613281 390.503906 308.777344 C 391.316406 308.9375 392.101562 309.179688 392.863281 309.496094 C 393.625 309.8125 394.351562 310.203125 395.035156 310.664062 C 395.722656 311.125 396.359375 311.648438 396.941406 312.238281 C 397.523438 312.824219 398.046875 313.460938 398.503906 314.152344 C 398.960938 314.84375 399.351562 315.570312 399.664062 316.339844 C 399.980469 317.105469 400.21875 317.894531 400.382812 318.710938 C 400.542969 319.523438 400.621094 320.347656 400.621094 321.175781 Z M 400.621094 321.175781 " fill-opacity="1" fill-rule="nonzero"/><path fill="#575656" d="M 388.34375 310.828125 C 393.585938 310.828125 397.84375 315.097656 397.84375 320.382812 C 397.84375 325.65625 393.585938 329.941406 388.34375 329.941406 C 383.101562 329.941406 378.847656 325.671875 378.847656 320.382812 C 378.847656 315.097656 383.101562 310.828125 388.34375 310.828125 Z M 388.34375 310.828125 " fill-opacity="1" fill-rule="evenodd"/><path fill="#ffffff" d="M 390.929688 311.925781 C 392.835938 311.925781 394.394531 313.484375 394.394531 315.40625 C 394.394531 317.324219 392.851562 318.882812 390.929688 318.882812 C 389.011719 318.882812 387.46875 317.324219 387.46875 315.40625 C 387.46875 313.484375 389.027344 311.925781 390.929688 311.925781 Z M 390.929688 311.925781 " fill-opacity="1" fill-rule="evenodd"/><path stroke-linecap="butt" transform="matrix(1.390435, 0, 0, 1.390942, 13.69252, -66.714587)" fill-opacity="1" fill="#000000" fill-rule="evenodd" stroke-linejoin="miter" d="M 269.019102 265.700466 L 267.448663 260.339329 L 292.280707 237.518689 L 293.21061 239.658651 L 299.500795 237.299638 L 298.00059 229.290229 L 290.991205 232.00871 L 291.850873 235.440512 L 265.08879 260.190486 L 267.381238 266.349194 Z M 269.019102 265.700466 " stroke="#000000" stroke-width="0.567" stroke-opacity="1" stroke-miterlimit="22.926001"/><path stroke-linecap="butt" transform="matrix(1.390435, 0, 0, 1.390942, 13.69252, -66.714587)" fill-opacity="1" fill="#000000" fill-rule="evenodd" stroke-linejoin="miter" d="M 273.601189 266.700238 L 273.530954 258.261151 L 312.558759 235.330986 L 312.128925 232.10981 L 319.54005 230.680361 L 321.110489 238.29941 L 314.03087 240.228746 L 313.199296 237.369847 L 276.320661 259.01098 L 276.399324 267.961186 Z M 273.601189 266.700238 " stroke="#000000" stroke-width="0.567" stroke-opacity="1" stroke-miterlimit="22.926001"/><path fill="#dc240e" d="M 159.492188 444.179688 C 159.492188 444.179688 183.769531 393.632812 186.953125 391.433594 C 190.140625 389.25 276.679688 364.769531 321.046875 369.136719 C 321.046875 369.136719 321.839844 366.898438 323.230469 366.550781 C 324.621094 366.203125 330.449219 366.007812 330.542969 370.304688 C 330.542969 370.304688 328.808594 372.101562 328.722656 373.992188 C 328.652344 375.882812 329.140625 379.386719 332.628906 384.964844 C 336.105469 390.542969 332.4375 402.285156 330.253906 411.628906 C 328.070312 420.976562 318.519531 434.316406 323.09375 447.058594 C 323.09375 447.058594 315.332031 437.90625 315.929688 430.144531 C 316.527344 422.382812 324.289062 412.632812 325.679688 409.445312 C 327.070312 406.261719 328.070312 389.542969 321.703125 385.371094 C 321.703125 385.371094 320.117188 381.390625 310.953125 392.53125 C 298.480469 407.722656 267.917969 392.171875 258.226562 413.632812 C 252.652344 425.972656 248.480469 435.722656 247.089844 444.289062 C 247.089844 444.289062 244.308594 425.582031 249.675781 412.644531 C 255.042969 399.710938 264.402344 390.945312 284.089844 391.753906 C 303.792969 392.546875 305.378906 388.972656 307.5625 386.175781 C 309.742188 383.394531 313.136719 373.644531 288.457031 375.632812 C 263.789062 377.621094 252.445312 380.613281 225.789062 397.722656 C 199.136719 414.816406 159.492188 444.179688 159.492188 444.179688 Z M 159.492188 444.179688 " fill-opacity="1" fill-rule="evenodd"/><path fill="#dc240e" d="M 325.59375 346.796875 L 330.476562 346.796875 L 330.476562 351.136719 L 325.59375 351.136719 L 325.59375 349.679688 L 302.515625 354.226562 L 305.363281 369.847656 L 304.558594 369.847656 L 301.582031 353.542969 L 302.359375 353.40625 L 302.375 353.433594 L 325.59375 348.871094 Z M 325.59375 346.796875 " fill-opacity="1" fill-rule="evenodd"/></svg>